<?xml version="1.0" encoding="UTF-8"?>
<svg width="1024px" height="141px" viewBox="0 0 1024 141" version="1.1" xmlns="http://www.w3.org/2000/svg" xmlns:xlink="http://www.w3.org/1999/xlink">
    <!-- Generator: Sketch 50.2 (55047) - http://www.bohemiancoding.com/sketch -->
    <title>Group</title>
    <desc>Created with Sketch.</desc>
    <defs></defs>
    <g id="Page-1" stroke="none" stroke-width="1" fill="none" fill-rule="evenodd">
        <g id="Desktop" transform="translate(0.000000, -323.000000)">
            <g id="Group" transform="translate(0.000000, 323.000000)">
                <path d="M0.00410691669,65.4245461 C64.5912636,50.1020895 105.331409,42.4408613 122.224543,42.4408613 C147.564244,42.4408613 293.08745,56.603222 325.126924,56.603222 C347.814809,56.603222 398.13468,53.5886729 418.290703,48.6455478 C439.661024,43.4046247 457.803121,43.4046247 477.55689,48.6455478 C556.419813,69.5688724 590.151064,26.4116013 616.602521,26.4116013 C642.601754,26.4116013 832.182271,65.477119 853.097325,60.524683 C853.461115,60.4385418 869.731045,59.3744844 899.584907,48.6455478 C918.213078,41.9509211 975.377034,66.5940841 1014.21524,66.5940841 C1028.74205,66.5940841 1038.87508,70.6516561 1044.61433,78.7668001 L1024.00411,108.206444 L0,108.206444 L0.00410691669,65.4245461 Z" id="tertiary" fill-opacity="0.841343976" fill="#F1C483"></path>
                <path d="M188.689389,24.1688457 C213.688308,24.1688457 432.958537,84.5346725 496.036682,55.0360826 C559.114826,25.5374928 632.421587,17.6005052 680.49565,21.568999 C728.569713,25.5374928 793.189203,62.5444338 830.192203,68.8969595 C893.780245,79.8134979 958.384213,73.2499927 1024.00411,49.2064439 L1024.00411,124.206444 L0.00410691669,124.206444 C109.161466,57.5147118 172.05656,24.1688457 188.689389,24.1688457 Z" id="secondary" fill="#F1C483"></path>
                <path d="M0.00410691669,65.1217923 C35.7467278,52.7985247 68.1480428,48.2566282 97.2080519,51.4961027 C232.633324,66.5926816 252.362563,26.0772388 284.402038,26.0772388 C316.153794,26.0772388 372.997343,74.946306 419.198739,74.946306 C465.400135,74.946306 572.861699,0.440049602 599.313155,0.440049602 C625.764611,0.440049602 769.769603,64.4298348 806.772603,70.7823606 C902.154666,87.1571681 933.943393,50.9827414 972.781595,50.9827414 C987.308412,50.9827414 1004.38258,55.6957584 1024.00411,65.1217923 L1024.00411,140.121792 L0,140.121792 L0.00410691669,65.1217923 Z" id="primary" fill="#FFCF8A"></path>
            </g>
        </g>
    </g>
</svg>