<?xml version="1.0" encoding="UTF-8"?>
<svg width="1025px" height="159px" viewBox="0 0 1025 159" version="1.1" xmlns="http://www.w3.org/2000/svg" xmlns:xlink="http://www.w3.org/1999/xlink">
    <!-- Generator: Sketch 52.6 (67491) - http://www.bohemiancoding.com/sketch -->
    <title>Group</title>
    <desc>Created with Sketch.</desc>
    <g id="Page-1" stroke="none" stroke-width="1" fill="none" fill-rule="evenodd">
        <g id="Group">
            <path d="M0.00402435488,65.4245461 C63.2927781,50.1020895 103.21392,42.4408613 119.767449,42.4408613 C144.597743,42.4408613 287.19548,56.603222 318.590861,56.603222 C340.822649,56.603222 390.130934,53.5886729 409.881758,48.6455478 C430.822469,43.4046247 448.599853,43.4046247 467.95651,48.6455478 C545.234043,69.5688724 578.28719,26.4116013 604.206891,26.4116013 C629.683458,26.4116013 815.452817,65.477119 835.947413,60.524683 C836.30389,60.4385418 852.246743,59.3744844 881.50045,48.6455478 C899.754137,41.9509211 955.768919,66.5940841 993.826356,66.5940841 C1008.06113,66.5940841 1017.99046,70.6516561 1023.61433,78.7668001 L1003.41844,108.206444 L0,108.206444 L0.00402435488,65.4245461 Z" id="tertiary" fill-opacity="0.841343976" fill="#F1C483"></path>
            <path d="M188.689389,24.1688457 C213.688308,24.1688457 432.958537,84.5346725 496.036682,55.0360826 C559.114826,25.5374928 632.421587,17.6005052 680.49565,21.568999 C728.569713,25.5374928 793.189203,62.5444338 830.192203,68.8969595 C893.780245,79.8134979 958.384213,73.2499927 1024.00411,49.2064439 L1024.00411,124.206444 L0.00410691669,124.206444 C109.161466,57.5147118 172.05656,24.1688457 188.689389,24.1688457 Z" id="secondary" fill="#F1C483"></path>
            <path d="M0.00410691669,65.1217923 C35.7467278,52.7985247 68.1480428,48.2566282 97.2080519,51.4961027 C232.633324,66.5926816 252.362563,26.0772388 284.402038,26.0772388 C316.153794,26.0772388 372.997343,74.946306 419.198739,74.946306 C465.400135,74.946306 572.861699,0.440049602 599.313155,0.440049602 C625.764611,0.440049602 769.769603,64.4298348 806.772603,70.7823606 C902.154666,87.1571681 933.943393,50.9827414 972.781595,50.9827414 C987.308412,50.9827414 1004.38258,55.6957584 1024.00411,65.1217923 L1024.00411,159 C769.780061,159 581.112024,159 458,159 C334.887976,159 182.222678,159 0.00410691669,159 L0.00410691669,65.1217923 Z" id="primary" fill="#FFCF8A"></path>
        </g>
    </g>
</svg>